<?xml version="1.0" standalone="no"?>
<!DOCTYPE svg PUBLIC "-//W3C//DTD SVG 20010904//EN"
 "http://www.w3.org/TR/2001/REC-SVG-20010904/DTD/svg10.dtd">
<svg version="1.0" xmlns="http://www.w3.org/2000/svg"
 width="30.000000pt" height="30.000000pt" viewBox="0 0 30.000000 30.000000"
 preserveAspectRatio="xMidYMid meet">

<g transform="translate(0.000000,30.000000) scale(0.100000,-0.100000)"
fill="#000000" stroke="none">
<path d="M127 264 c-4 -4 -7 -29 -7 -56 0 -43 -2 -48 -22 -48 -21 0 -19 -3 15
-37 l37 -38 37 38 c34 33 35 37 16 37 -19 0 -22 6 -25 53 -3 44 -6 52 -23 55
-12 2 -24 0 -28 -4z"/>
<path d="M23 38 c3 -10 37 -13 127 -13 90 0 124 3 128 13 3 9 -27 12 -128 12
-101 0 -131 -3 -127 -12z"/>
</g>
</svg>
