<?xml version="1.0" standalone="no"?>
<!DOCTYPE svg PUBLIC "-//W3C//DTD SVG 20010904//EN"
 "http://www.w3.org/TR/2001/REC-SVG-20010904/DTD/svg10.dtd">
<svg version="1.0" xmlns="http://www.w3.org/2000/svg"
 width="30.000000pt" height="30.000000pt" viewBox="0 0 30.000000 30.000000"
 preserveAspectRatio="xMidYMid meet">

<g transform="translate(0.000000,30.000000) scale(0.100000,-0.100000)"
fill="#000000" stroke="none">
<path d="M21 283 c7 -10 35 -43 62 -75 l47 -56 -55 -65 c-30 -36 -55 -70 -55
-76 0 -7 41 -11 119 -11 l118 0 7 31 c3 17 6 41 6 53 0 20 -2 19 -25 -7 -22
-23 -34 -27 -80 -27 -30 0 -55 3 -55 8 0 4 18 29 40 56 l40 48 -36 49 -36 49
52 0 c43 0 53 -3 57 -20 10 -37 33 -23 33 20 l0 40 -126 0 c-119 0 -126 -1
-113 -17z m227 -21 l4 -24 -21 21 c-16 16 -34 21 -70 21 -28 0 -52 -4 -55 -9
-3 -5 10 -29 29 -54 19 -25 35 -49 35 -53 0 -4 -21 -32 -46 -63 l-46 -56 67
-3 c48 -2 74 1 91 13 24 16 25 16 18 -12 -4 -15 -8 -29 -9 -31 -1 -1 -50 -1
-108 0 l-106 3 54 65 c30 35 55 67 55 70 0 3 -22 32 -50 65 -27 33 -50 64 -50
68 0 4 46 6 103 5 98 -3 102 -4 105 -26z"/>
</g>
</svg>
