<svg fill="#000000" xmlns="http://www.w3.org/2000/svg"  viewBox="0 0 64 64" width="30px" height="30px"><path d="M 14.353516 6 C 11.421784 6 9 8.3493855 9 11.25 L 9 53.75 C 9 56.650615 11.421784 59 14.353516 59 L 42.646484 59 C 45.578216 59 48 56.650615 48 53.75 L 48 11.25 C 48 8.3493855 45.578216 6 42.646484 6 L 14.353516 6 z M 14.353516 8 L 42.646484 8 C 44.522753 8 46 9.4566145 46 11.25 L 46 53.75 C 46 55.543385 44.522753 57 42.646484 57 L 14.353516 57 C 12.477247 57 11 55.543385 11 53.75 L 11 11.25 C 11 9.4566145 12.477247 8 14.353516 8 z M 16.230469 10 C 14.514161 10 13 11.292888 13 13 L 13 19 C 13 20.707715 14.514161 22 16.230469 22 L 40.769531 22 C 42.485232 22 44 20.707715 44 19 L 44 13 C 44 11.292285 42.485839 10 40.769531 10 L 16.230469 10 z M 16.230469 12 L 40.769531 12 C 41.517224 12 42 12.497715 42 13 L 42 19 C 42 19.502285 41.51583 20 40.769531 20 L 16.230469 20 C 15.482776 20 15 19.502285 15 19 L 15 13 C 15 12.497112 15.482776 12 16.230469 12 z M 52 12 C 51.448 12 51 12.447 51 13 C 51 13.553 51.448 14 52 14 L 54 14 C 54.552 14 55 13.553 55 13 C 55 12.447 54.552 12 54 12 L 52 12 z M 52 17 C 51.448 17 51 17.447 51 18 C 51 18.553 51.448 19 52 19 L 54 19 C 54.552 19 55 18.553 55 18 C 55 17.447 54.552 17 54 17 L 52 17 z M 52 22 C 51.448 22 51 22.447 51 23 C 51 23.553 51.448 24 52 24 L 54 24 C 54.552 24 55 23.553 55 23 C 55 22.447 54.552 22 54 22 L 52 22 z M 17.5 24 C 16.083334 24 14.893559 24.567256 14.126953 25.429688 C 13.360347 26.292119 13 27.402778 13 28.5 C 13 29.597222 13.360347 30.707882 14.126953 31.570312 C 14.893559 32.432744 16.083334 33 17.5 33 C 18.916666 33 20.106441 32.432744 20.873047 31.570312 C 21.639653 30.707881 22 29.597222 22 28.5 C 22 27.402778 21.639653 26.292118 20.873047 25.429688 C 20.106441 24.567256 18.916666 24 17.5 24 z M 28.5 24 C 27.083334 24 25.893559 24.567256 25.126953 25.429688 C 24.360347 26.292119 24 27.402778 24 28.5 C 24 29.597222 24.360347 30.707882 25.126953 31.570312 C 25.893559 32.432744 27.083334 33 28.5 33 C 29.916666 33 31.106441 32.432744 31.873047 31.570312 C 32.639653 30.707881 33 29.597222 33 28.5 C 33 27.402778 32.639653 26.292118 31.873047 25.429688 C 31.106441 24.567256 29.916666 24 28.5 24 z M 39.5 24 C 38.083334 24 36.893559 24.567256 36.126953 25.429688 C 35.360347 26.292119 35 27.402778 35 28.5 C 35 29.597222 35.360347 30.707882 36.126953 31.570312 C 36.893559 32.432744 38.083334 33 39.5 33 C 40.916666 33 42.106441 32.432744 42.873047 31.570312 C 43.639653 30.707881 44 29.597222 44 28.5 C 44 27.402778 43.639653 26.292118 42.873047 25.429688 C 42.106441 24.567256 40.916666 24 39.5 24 z M 17.5 26 C 18.416666 26 18.976893 26.307744 19.376953 26.757812 C 19.777013 27.207881 20 27.847222 20 28.5 C 20 29.152778 19.777013 29.792118 19.376953 30.242188 C 18.976893 30.692256 18.416666 31 17.5 31 C 16.583334 31 16.023107 30.692256 15.623047 30.242188 C 15.222987 29.792119 15 29.152778 15 28.5 C 15 27.847222 15.222987 27.207882 15.623047 26.757812 C 16.023107 26.307744 16.583334 26 17.5 26 z M 28.5 26 C 29.416666 26 29.976893 26.307744 30.376953 26.757812 C 30.777013 27.207881 31 27.847222 31 28.5 C 31 29.152778 30.777013 29.792118 30.376953 30.242188 C 29.976893 30.692256 29.416666 31 28.5 31 C 27.583334 31 27.023107 30.692256 26.623047 30.242188 C 26.222987 29.792119 26 29.152778 26 28.5 C 26 27.847222 26.222987 27.207882 26.623047 26.757812 C 27.023107 26.307744 27.583334 26 28.5 26 z M 39.5 26 C 40.416666 26 40.976893 26.307744 41.376953 26.757812 C 41.777013 27.207881 42 27.847222 42 28.5 C 42 29.152778 41.777013 29.792118 41.376953 30.242188 C 40.976893 30.692256 40.416666 31 39.5 31 C 38.583334 31 38.023107 30.692256 37.623047 30.242188 C 37.222987 29.792119 37 29.152778 37 28.5 C 37 27.847222 37.222987 27.207882 37.623047 26.757812 C 38.023107 26.307744 38.583334 26 39.5 26 z M 52 27 C 51.448 27 51 27.447 51 28 C 51 28.553 51.448 29 52 29 L 54 29 C 54.552 29 55 28.553 55 28 C 55 27.447 54.552 27 54 27 L 52 27 z M 52 32 C 51.448 32 51 32.447 51 33 C 51 33.553 51.448 34 52 34 L 54 34 C 54.552 34 55 33.553 55 33 C 55 32.447 54.552 32 54 32 L 52 32 z M 17.5 35 C 16.083334 35 14.893559 35.567256 14.126953 36.429688 C 13.360347 37.292119 13 38.402778 13 39.5 C 13 40.597222 13.360347 41.707881 14.126953 42.570312 C 14.893559 43.432744 16.083334 44 17.5 44 C 18.916666 44 20.106441 43.432745 20.873047 42.570312 C 21.639653 41.707881 22 40.597222 22 39.5 C 22 38.402778 21.639653 37.292119 20.873047 36.429688 C 20.106441 35.567256 18.916666 35 17.5 35 z M 28.5 35 C 27.083334 35 25.893559 35.567256 25.126953 36.429688 C 24.360347 37.292119 24 38.402778 24 39.5 C 24 40.597222 24.360347 41.707881 25.126953 42.570312 C 25.893559 43.432744 27.083334 44 28.5 44 C 29.916666 44 31.106441 43.432745 31.873047 42.570312 C 32.639653 41.707881 33 40.597222 33 39.5 C 33 38.402778 32.639653 37.292119 31.873047 36.429688 C 31.106441 35.567256 29.916666 35 28.5 35 z M 39.5 35 C 38.083334 35 36.893559 35.567256 36.126953 36.429688 C 35.360347 37.292119 35 38.402778 35 39.5 C 35 40.597222 35.360347 41.707881 36.126953 42.570312 C 36.893559 43.432744 38.083334 44 39.5 44 C 40.916666 44 42.106441 43.432745 42.873047 42.570312 C 43.639653 41.707881 44 40.597222 44 39.5 C 44 38.402778 43.639653 37.292119 42.873047 36.429688 C 42.106441 35.567256 40.916666 35 39.5 35 z M 17.5 37 C 18.416666 37 18.976893 37.307744 19.376953 37.757812 C 19.777013 38.207881 20 38.847222 20 39.5 C 20 40.152778 19.777013 40.792119 19.376953 41.242188 C 18.976893 41.692256 18.416666 42 17.5 42 C 16.583334 42 16.023107 41.692256 15.623047 41.242188 C 15.222987 40.792119 15 40.152778 15 39.5 C 15 38.847222 15.222987 38.207881 15.623047 37.757812 C 16.023107 37.307744 16.583334 37 17.5 37 z M 28.5 37 C 29.416666 37 29.976893 37.307744 30.376953 37.757812 C 30.777013 38.207881 31 38.847222 31 39.5 C 31 40.152778 30.777013 40.792119 30.376953 41.242188 C 29.976893 41.692256 29.416666 42 28.5 42 C 27.583334 42 27.023107 41.692256 26.623047 41.242188 C 26.222987 40.792119 26 40.152778 26 39.5 C 26 38.847222 26.222987 38.207881 26.623047 37.757812 C 27.023107 37.307744 27.583334 37 28.5 37 z M 39.5 37 C 40.416666 37 40.976893 37.307744 41.376953 37.757812 C 41.777013 38.207881 42 38.847222 42 39.5 C 42 40.152778 41.777013 40.792119 41.376953 41.242188 C 40.976893 41.692256 40.416666 42 39.5 42 C 38.583334 42 38.023107 41.692256 37.623047 41.242188 C 37.222987 40.792119 37 40.152778 37 39.5 C 37 38.847222 37.222987 38.207881 37.623047 37.757812 C 38.023107 37.307744 38.583334 37 39.5 37 z M 52 37 C 51.448 37 51 37.447 51 38 C 51 38.553 51.448 39 52 39 L 54 39 C 54.552 39 55 38.553 55 38 C 55 37.447 54.552 37 54 37 L 52 37 z M 52 42 C 51.448 42 51 42.447 51 43 C 51 43.553 51.448 44 52 44 L 54 44 C 54.552 44 55 43.553 55 43 C 55 42.447 54.552 42 54 42 L 52 42 z M 17.5 46 C 15.026562 46 13 48.026562 13 50.5 C 13 52.973438 15.026562 55 17.5 55 L 28.5 55 C 30.973438 55 33 52.973438 33 50.5 C 33 48.026562 30.973438 46 28.5 46 L 17.5 46 z M 39.5 46 C 38.083334 46 36.893559 46.567255 36.126953 47.429688 C 35.360347 48.292119 35 49.402778 35 50.5 C 35 51.597222 35.360347 52.707881 36.126953 53.570312 C 36.893559 54.432744 38.083334 55 39.5 55 C 40.916666 55 42.106441 54.432745 42.873047 53.570312 C 43.639653 52.707881 44 51.597222 44 50.5 C 44 49.402778 43.639653 48.292119 42.873047 47.429688 C 42.106441 46.567256 40.916666 46 39.5 46 z M 52 47 C 51.448 47 51 47.447 51 48 C 51 48.553 51.448 49 52 49 L 54 49 C 54.552 49 55 48.553 55 48 C 55 47.447 54.552 47 54 47 L 52 47 z M 17.5 48 L 28.5 48 C 29.892562 48 31 49.107438 31 50.5 C 31 51.892562 29.892562 53 28.5 53 L 17.5 53 C 16.107438 53 15 51.892562 15 50.5 C 15 49.107438 16.107438 48 17.5 48 z M 39.5 48 C 40.416666 48 40.976893 48.307745 41.376953 48.757812 C 41.777013 49.207881 42 49.847222 42 50.5 C 42 51.152778 41.777013 51.792119 41.376953 52.242188 C 40.976893 52.692256 40.416666 53 39.5 53 C 38.583334 53 38.023107 52.692255 37.623047 52.242188 C 37.222987 51.792119 37 51.152778 37 50.5 C 37 49.847222 37.222987 49.207881 37.623047 48.757812 C 38.023107 48.307744 38.583334 48 39.5 48 z M 52 52 C 51.448 52 51 52.447 51 53 C 51 53.553 51.448 54 52 54 L 54 54 C 54.552 54 55 53.553 55 53 C 55 52.447 54.552 52 54 52 L 52 52 z"/></svg>